<mxfile host="app.diagrams.net" modified="2023-12-07T08:45:35.929Z" agent="Mozilla/5.0 (Windows NT 10.0; Win64; x64) AppleWebKit/537.36 (KHTML, like Gecko) Chrome/119.0.0.0 Safari/537.36 Edg/119.0.0.0" etag="BRnV2HLL02uLIFj1Es-y" version="22.1.7" type="github">
  <diagram name="第 1 页" id="sHKeRXVHbGxqI7A6wAO8">
    <mxGraphModel dx="983" dy="547" grid="1" gridSize="10" guides="1" tooltips="1" connect="1" arrows="1" fold="1" page="1" pageScale="1" pageWidth="827" pageHeight="1169" math="0" shadow="0">
      <root>
        <mxCell id="0" />
        <mxCell id="1" parent="0" />
        <mxCell id="ajfnUgS60PqcVc52xieS-19" value="(1)RB和XPID绑定(写寄存器)&lt;br&gt;(2)GPU页表和XPID绑定(写寄存器)&lt;br&gt;所以，RB里面的包就知道&lt;br&gt;用ATU哪个xpid的页表了" style="rounded=0;whiteSpace=wrap;html=1;fillColor=#dae8fc;dashed=1;dashPattern=1 1;align=left;verticalAlign=top;strokeColor=#6c8ebf;" vertex="1" parent="1">
          <mxGeometry x="200" y="210" width="390" height="100" as="geometry" />
        </mxCell>
        <mxCell id="ajfnUgS60PqcVc52xieS-20" value="" style="group" vertex="1" connectable="0" parent="1">
          <mxGeometry x="200" y="260" width="520" height="200" as="geometry" />
        </mxCell>
        <mxCell id="ajfnUgS60PqcVc52xieS-1" value="XPID" style="rounded=0;whiteSpace=wrap;html=1;" vertex="1" parent="ajfnUgS60PqcVc52xieS-20">
          <mxGeometry x="160" width="50" height="30" as="geometry" />
        </mxCell>
        <mxCell id="ajfnUgS60PqcVc52xieS-2" value="RB" style="rounded=0;whiteSpace=wrap;html=1;align=left;" vertex="1" parent="ajfnUgS60PqcVc52xieS-20">
          <mxGeometry y="60" width="120" height="30" as="geometry" />
        </mxCell>
        <mxCell id="ajfnUgS60PqcVc52xieS-3" value="ATU" style="rounded=0;whiteSpace=wrap;html=1;align=right;" vertex="1" parent="ajfnUgS60PqcVc52xieS-20">
          <mxGeometry x="270" y="60" width="120" height="30" as="geometry" />
        </mxCell>
        <mxCell id="ajfnUgS60PqcVc52xieS-5" value="gpu 页表基地址" style="rounded=0;whiteSpace=wrap;html=1;" vertex="1" parent="ajfnUgS60PqcVc52xieS-20">
          <mxGeometry x="270" y="60" width="60" height="30" as="geometry" />
        </mxCell>
        <mxCell id="ajfnUgS60PqcVc52xieS-6" value="这个RB发下去的包用哪个ATU页表" style="rounded=0;whiteSpace=wrap;html=1;" vertex="1" parent="ajfnUgS60PqcVc52xieS-20">
          <mxGeometry x="20" y="60" width="100" height="30" as="geometry" />
        </mxCell>
        <mxCell id="ajfnUgS60PqcVc52xieS-7" value="" style="curved=1;endArrow=classic;html=1;rounded=0;entryX=0.5;entryY=0;entryDx=0;entryDy=0;exitX=0.5;exitY=1;exitDx=0;exitDy=0;dashed=1;" edge="1" parent="ajfnUgS60PqcVc52xieS-20" source="ajfnUgS60PqcVc52xieS-1" target="ajfnUgS60PqcVc52xieS-6">
          <mxGeometry width="50" height="50" relative="1" as="geometry">
            <mxPoint x="300" as="sourcePoint" />
            <mxPoint x="270" y="-30" as="targetPoint" />
            <Array as="points">
              <mxPoint x="170" y="40" />
              <mxPoint x="110" y="40" />
            </Array>
          </mxGeometry>
        </mxCell>
        <mxCell id="ajfnUgS60PqcVc52xieS-8" value="" style="curved=1;endArrow=classic;html=1;rounded=0;exitX=0.5;exitY=1;exitDx=0;exitDy=0;entryX=0.5;entryY=0;entryDx=0;entryDy=0;dashed=1;" edge="1" parent="ajfnUgS60PqcVc52xieS-20" source="ajfnUgS60PqcVc52xieS-1" target="ajfnUgS60PqcVc52xieS-5">
          <mxGeometry width="50" height="50" relative="1" as="geometry">
            <mxPoint x="220" y="20" as="sourcePoint" />
            <mxPoint x="270" y="-30" as="targetPoint" />
            <Array as="points" />
          </mxGeometry>
        </mxCell>
        <mxCell id="ajfnUgS60PqcVc52xieS-17" style="edgeStyle=orthogonalEdgeStyle;rounded=0;orthogonalLoop=1;jettySize=auto;html=1;exitX=1;exitY=0.5;exitDx=0;exitDy=0;entryX=0;entryY=0.5;entryDx=0;entryDy=0;" edge="1" parent="ajfnUgS60PqcVc52xieS-20" source="ajfnUgS60PqcVc52xieS-9" target="ajfnUgS60PqcVc52xieS-5">
          <mxGeometry relative="1" as="geometry" />
        </mxCell>
        <mxCell id="ajfnUgS60PqcVc52xieS-9" value="IP执行某个RB的packet" style="rounded=0;whiteSpace=wrap;html=1;align=left;" vertex="1" parent="ajfnUgS60PqcVc52xieS-20">
          <mxGeometry y="140" width="120" height="30" as="geometry" />
        </mxCell>
        <mxCell id="ajfnUgS60PqcVc52xieS-10" style="edgeStyle=orthogonalEdgeStyle;rounded=0;orthogonalLoop=1;jettySize=auto;html=1;exitX=0.391;exitY=1.031;exitDx=0;exitDy=0;entryX=0.5;entryY=0;entryDx=0;entryDy=0;exitPerimeter=0;" edge="1" parent="ajfnUgS60PqcVc52xieS-20" source="ajfnUgS60PqcVc52xieS-6" target="ajfnUgS60PqcVc52xieS-9">
          <mxGeometry relative="1" as="geometry" />
        </mxCell>
        <mxCell id="ajfnUgS60PqcVc52xieS-11" value="RNOC" style="rounded=0;whiteSpace=wrap;html=1;" vertex="1" parent="ajfnUgS60PqcVc52xieS-20">
          <mxGeometry x="270" y="150" width="70" height="30" as="geometry" />
        </mxCell>
        <mxCell id="ajfnUgS60PqcVc52xieS-13" style="edgeStyle=orthogonalEdgeStyle;rounded=0;orthogonalLoop=1;jettySize=auto;html=1;exitX=0.5;exitY=1;exitDx=0;exitDy=0;entryX=0.5;entryY=0;entryDx=0;entryDy=0;" edge="1" parent="ajfnUgS60PqcVc52xieS-20" source="ajfnUgS60PqcVc52xieS-5" target="ajfnUgS60PqcVc52xieS-11">
          <mxGeometry relative="1" as="geometry" />
        </mxCell>
        <mxCell id="ajfnUgS60PqcVc52xieS-14" value="HBM" style="rounded=0;whiteSpace=wrap;html=1;" vertex="1" parent="ajfnUgS60PqcVc52xieS-20">
          <mxGeometry x="390" y="135" width="120" height="60" as="geometry" />
        </mxCell>
        <mxCell id="ajfnUgS60PqcVc52xieS-16" value="PA" style="text;html=1;strokeColor=none;fillColor=none;align=center;verticalAlign=middle;whiteSpace=wrap;rounded=0;" vertex="1" parent="ajfnUgS60PqcVc52xieS-20">
          <mxGeometry x="280" y="110" width="60" height="30" as="geometry" />
        </mxCell>
        <mxCell id="ajfnUgS60PqcVc52xieS-18" value="VA" style="text;html=1;strokeColor=none;fillColor=none;align=center;verticalAlign=middle;whiteSpace=wrap;rounded=0;" vertex="1" parent="ajfnUgS60PqcVc52xieS-20">
          <mxGeometry x="180" y="100" width="60" height="30" as="geometry" />
        </mxCell>
        <mxCell id="ajfnUgS60PqcVc52xieS-15" style="edgeStyle=orthogonalEdgeStyle;rounded=0;orthogonalLoop=1;jettySize=auto;html=1;exitX=1;exitY=0.5;exitDx=0;exitDy=0;entryX=0;entryY=0.5;entryDx=0;entryDy=0;" edge="1" parent="ajfnUgS60PqcVc52xieS-20" source="ajfnUgS60PqcVc52xieS-11" target="ajfnUgS60PqcVc52xieS-14">
          <mxGeometry relative="1" as="geometry" />
        </mxCell>
      </root>
    </mxGraphModel>
  </diagram>
</mxfile>
